<?xml version="1.0" encoding="UTF-8" standalone="no"?>
<!DOCTYPE svg PUBLIC "-//W3C//DTD SVG 1.1//EN" "http://www.w3.org/Graphics/SVG/1.1/DTD/svg11.dtd">
<!-- Generated by Microsoft Visio, SVG Export knx_iot_sys_sample.svg Page-1 -->
<svg xmlns="http://www.w3.org/2000/svg" xmlns:xlink="http://www.w3.org/1999/xlink" xmlns:ev="http://www.w3.org/2001/xml-events"
		width="5.11144in" height="3.79066in" viewBox="0 0 368.024 272.928" xml:space="preserve" color-interpolation-filters="sRGB"
		class="st15">
	<style type="text/css">
	<![CDATA[
		.st1 {fill:none;stroke:#0077c8;stroke-width:1}
		.st2 {fill:#0077c8;font-family:Arial;font-size:0.916672em}
		.st3 {fill:#0033a0;stroke:none;stroke-width:1}
		.st4 {fill:#ffffff;font-family:Arial;font-size:0.916672em}
		.st5 {font-size:1em}
		.st6 {fill:#00a9ce;stroke:none;stroke-width:1}
		.st7 {fill:#0077c8;stroke:none;stroke-width:1}
		.st8 {fill:#6ad1e3;stroke:none;stroke-width:1}
		.st9 {stroke:#ffcd00;stroke-linecap:butt;stroke-width:1.5}
		.st10 {stroke:#f58220;stroke-linecap:butt;stroke-width:1.5}
		.st11 {stroke:#d0df00;stroke-linecap:butt;stroke-width:1.5}
		.st12 {fill:none;stroke:#333f48;stroke-width:1}
		.st13 {fill:none;stroke:none;stroke-width:1}
		.st14 {fill:#000000;font-family:Arial;font-size:0.75em}
		.st15 {fill:none;fill-rule:evenodd;font-size:12px;overflow:visible;stroke-linecap:square;stroke-miterlimit:3}
	]]>
	</style>

	<g>
		<title>Page-1</title>
		<g id="shape16-1" transform="translate(170.37,-1)">
			<title>Nordic Sky.16</title>
			<desc>Thread network</desc>
			<rect x="0" y="97.5597" width="196.654" height="175.368" class="st1"/>
			<text x="60.11" y="265.63" class="st2">Thread network</text>		</g>
		<g id="shape5-4" transform="translate(100.921,-237.474)">
			<title>Nordic Sky</title>
			<desc>Ethernet switch</desc>
			<rect x="0" y="238.474" width="69.4488" height="34.4542" class="st3"/>
			<text x="13.93" y="252.4" class="st4">Ethernet <tspan x="19.44" dy="1.2em" class="st5">switch</tspan></text>		</g>
		<g id="shape7-8" transform="translate(181.666,-237.474)">
			<title>Nordic Sky.7</title>
			<desc>Computer with ETS installed</desc>
			<rect x="0" y="238.474" width="84.7276" height="34.4542" class="st6"/>
			<text x="6.91" y="252.4" class="st4">Computer with <tspan x="9.96" dy="1.2em" class="st5">ETS installed</tspan></text>		</g>
		<g id="shape8-12" transform="translate(84.622,-157.285)">
			<title>Nordic Sky.8</title>
			<desc>KNX IoT router</desc>
			<rect x="0" y="238.474" width="69.4488" height="34.4542" class="st7"/>
			<text x="13.94" y="252.4" class="st4">KNX IoT <tspan x="20.36" dy="1.2em" class="st5">router</tspan></text>		</g>
		<g id="shape9-16" transform="translate(1,-157.285)">
			<title>Nordic Sky.9</title>
			<desc>KNX IP router</desc>
			<rect x="0" y="238.474" width="69.4488" height="34.4542" class="st7"/>
			<text x="16.69" y="252.4" class="st4">KNX IP <tspan x="20.36" dy="1.2em" class="st5">router</tspan></text>		</g>
		<g id="shape10-20" transform="translate(188.087,-157.285)">
			<title>Nordic Sky.10</title>
			<desc>Thread Border router</desc>
			<rect x="0" y="238.474" width="156.614" height="34.4542" class="st7"/>
			<text x="42.84" y="252.4" class="st4">Thread Border <tspan x="63.94" dy="1.2em" class="st5">router</tspan></text>		</g>
		<g id="shape11-24" transform="translate(84.622,-27.0566)">
			<title>Nordic Sky.11</title>
			<desc>KNX classic device 2</desc>
			<rect x="0" y="224.63" width="69.4488" height="48.2975" class="st8"/>
			<text x="23.42" y="238.88" class="st4">KNX  <tspan x="18.22" dy="1.2em" class="st5">classic </tspan><tspan x="14.24"
						dy="1.2em" class="st5">device 2</tspan></text>		</g>
		<g id="shape12-29" transform="translate(84.622,-90.8915)">
			<title>Nordic Sky.12</title>
			<desc>KNX classic device 1</desc>
			<rect x="0" y="224.63" width="69.4488" height="48.2975" class="st8"/>
			<text x="23.42" y="238.88" class="st4">KNX <tspan x="18.22" dy="1.2em" class="st5">classic </tspan><tspan x="14.24"
						dy="1.2em" class="st5">device 1</tspan></text>		</g>
		<g id="shape13-34" transform="translate(190.921,-90.8915)">
			<title>Nordic Sky.13</title>
			<desc>KNX IoT Point API device 1</desc>
			<rect x="0" y="224.63" width="69.4488" height="48.2975" class="st8"/>
			<text x="13.94" y="238.88" class="st4">KNX IoT <tspan x="11.8" dy="1.2em" class="st5">Point API </tspan><tspan
						x="14.24" dy="1.2em" class="st5">device 1</tspan></text>		</g>
		<g id="shape14-39" transform="translate(275.252,-90.8915)">
			<title>Nordic Sky.14</title>
			<desc>KNX IoT Point API device 2</desc>
			<rect x="0" y="224.63" width="69.4488" height="48.2975" class="st8"/>
			<text x="13.94" y="238.88" class="st4">KNX IoT <tspan x="11.8" dy="1.2em" class="st5">Point API </tspan><tspan
						x="14.24" dy="1.2em" class="st5">device 2</tspan></text>		</g>
		<g id="shape15-44" transform="translate(275.252,-27.0566)">
			<title>Nordic Sky.15</title>
			<desc>KNX IoT Point API device 3</desc>
			<rect x="0" y="224.63" width="69.4488" height="48.2975" class="st8"/>
			<text x="13.94" y="238.88" class="st4">KNX IoT <tspan x="11.8" dy="1.2em" class="st5">Point API </tspan><tspan
						x="14.24" dy="1.2em" class="st5">device 3</tspan></text>		</g>
		<g id="shape17-49" transform="translate(168.931,-247.614)">
			<title>Dynamic connector</title>
			<path d="M1.44 265.84 L12.73 265.84" class="st9"/>
		</g>
		<g id="shape18-52" transform="translate(183.105,-240.238)">
			<title>Dynamic connector.18</title>
			<path d="M-1.44 265.91 L-12.73 265.77" class="st10"/>
		</g>
		<g id="shape19-55" transform="translate(119.169,-237.474)">
			<title>Dynamic connector.19</title>
			<path d="M-6.98 272.93 L-7.19 318.66" class="st9"/>
		</g>
		<g id="shape20-58" transform="translate(112.224,-237.474)">
			<title>Dynamic connector.20</title>
			<path d="M7.05 272.93 L7.12 318.66" class="st10"/>
		</g>
		<g id="shape21-61" transform="translate(100.921,-254.701)">
			<title>Dynamic connector.21</title>
			<path d="M0 272.93 L-65.2 272.93 L-65.2 335.89" class="st9"/>
		</g>
		<g id="shape22-64" transform="translate(35.7244,-157.285)">
			<title>Dynamic connector.22</title>
			<path d="M0 272.93 L0 315.17 L48.9 315.17" class="st11"/>
		</g>
		<g id="shape23-67" transform="translate(35.7244,-157.285)">
			<title>Dynamic connector.23</title>
			<path d="M0 272.93 L0 379.01 L48.9 379.01" class="st11"/>
		</g>
		<g id="shape24-70" transform="translate(154.071,-237.474)">
			<title>Dynamic connector.24</title>
			<path d="M0 272.93 L0 295.98 L112.32 295.98 L112.32 318.66" class="st10"/>
		</g>
		<g id="shape25-73" transform="translate(218.488,-157.285)">
			<title>Dynamic connector.25</title>
			<path d="M7.02 272.93 L7.16 291.02" class="st10"/>
		</g>
		<g id="shape26-76" transform="translate(317.063,-157.285)">
			<title>Dynamic connector.26</title>
			<path d="M-7.09 272.93 L-7.09 291.02" class="st10"/>
		</g>
		<g id="shape27-79" transform="translate(302.89,-90.8915)">
			<title>Dynamic connector.27</title>
			<path d="M7.09 272.93 L7.09 288.47" class="st10"/>
		</g>
		<g id="shape28-82" transform="translate(279.15,-213.818)">
			<title>Nordic Blue</title>
			<rect x="0" y="214.818" width="87.874" height="58.1102" class="st12"/>
		</g>
		<g id="shape30-84" transform="translate(288.463,-254.92)">
			<title>Dynamic connector.30</title>
			<path d="M0 265.84 L17.01 265.84" class="st11"/>
		</g>
		<g id="shape31-87" transform="translate(288.362,-236.381)">
			<title>Dynamic connector.31</title>
			<path d="M0 265.84 L17.01 265.84" class="st9"/>
		</g>
		<g id="shape32-90" transform="translate(288.504,-216.652)">
			<title>Dynamic connector.32</title>
			<path d="M0 265.84 L17.01 265.84" class="st10"/>
		</g>
		<g id="shape33-93" transform="translate(310.331,-252.085)">
			<title>Sheet.33</title>
			<desc>KNX TP</desc>
			<rect x="0" y="253.085" width="56.6929" height="19.8425" class="st13"/>
			<text x="4" y="265.71" class="st14">KNX TP</text>		</g>
		<g id="shape36-96" transform="translate(310.331,-232.243)">
			<title>Sheet.36</title>
			<desc>KNXnet/IP</desc>
			<rect x="0" y="253.085" width="56.6929" height="19.8425" class="st13"/>
			<text x="4" y="265.71" class="st14">KNXnet/IP</text>		</g>
		<g id="shape37-99" transform="translate(310.331,-213.818)">
			<title>Sheet.37</title>
			<desc>CoAP/IPv6</desc>
			<rect x="0" y="253.085" width="56.6929" height="19.8425" class="st13"/>
			<text x="4" y="265.71" class="st14">CoAP/IPv6</text>		</g>
	</g>
</svg>
