<?xml version="1.0" encoding="UTF-8" standalone="no"?>
<!DOCTYPE svg PUBLIC "-//W3C//DTD SVG 1.1//EN" "http://www.w3.org/Graphics/SVG/1.1/DTD/svg11.dtd">
<!-- Generated by Microsoft Visio, SVG Export knx_iot_sys_sample.svg Page-1 -->
<svg xmlns="http://www.w3.org/2000/svg" xmlns:xlink="http://www.w3.org/1999/xlink" xmlns:ev="http://www.w3.org/2001/xml-events"
		width="5.06223in" height="3.88246in" viewBox="0 0 364.48 279.537" xml:space="preserve" color-interpolation-filters="sRGB"
		class="st16">
	<style type="text/css">
	<![CDATA[
		.st1 {fill:#d9e1e2;stroke:none;stroke-width:1}
		.st2 {fill:#0077c8;font-family:Arial;font-size:0.916672em}
		.st3 {fill:#00a9ce;stroke:none;stroke-width:1}
		.st4 {fill:#ffffff;font-family:Arial;font-size:0.916672em}
		.st5 {font-size:1em}
		.st6 {fill:#0077c8;stroke:none;stroke-width:1}
		.st7 {fill:#6ad1e3;stroke:none;stroke-width:1}
		.st8 {stroke:#ffcd00;stroke-linecap:butt;stroke-width:1.5}
		.st9 {stroke:#ee2f4e;stroke-linecap:butt;stroke-width:1.5}
		.st10 {stroke:#0033a0;stroke-linecap:butt;stroke-width:1.5}
		.st11 {stroke:#ee2f4e;stroke-dasharray:3,1.5;stroke-linecap:butt;stroke-width:1.5}
		.st12 {stroke:#ff0000;stroke-dasharray:3,1.5;stroke-linecap:butt;stroke-width:1.5}
		.st13 {fill:none;stroke:#333f48;stroke-width:1}
		.st14 {fill:none;stroke:none;stroke-width:1}
		.st15 {fill:#000000;font-family:Arial;font-size:0.75em}
		.st16 {fill:none;fill-rule:evenodd;font-size:12px;overflow:visible;stroke-linecap:square;stroke-miterlimit:3}
	]]>
	</style>

	<g>
		<title>Page-1</title>
		<g id="shape16-1" transform="translate(166.827,-29.6872)">
			<title>Nordic Sky.16</title>
			<desc>KNX IoT / Thread network</desc>
			<rect x="0" y="100.326" width="196.654" height="179.211" class="st1"/>
			<text x="34.75" y="272.24" class="st2">KNX IoT / Thread network</text>		</g>
		<g id="shape5-4" transform="translate(78.9527,-244.083)">
			<title>Nordic Sky</title>
			<desc>Ethernet switch</desc>
			<rect x="0" y="245.083" width="69.4488" height="34.4542" class="st3"/>
			<text x="13.93" y="259.01" class="st4">Ethernet <tspan x="19.44" dy="1.2em" class="st5">switch</tspan></text>		</g>
		<g id="shape8-8" transform="translate(84.622,-189.815)">
			<title>Nordic Sky.8</title>
			<desc>KNX IoT router</desc>
			<rect x="0" y="245.083" width="69.4488" height="34.4542" class="st6"/>
			<text x="13.94" y="259.01" class="st4">KNX IoT <tspan x="20.36" dy="1.2em" class="st5">router</tspan></text>		</g>
		<g id="shape9-12" transform="translate(1,-189.815)">
			<title>Nordic Sky.9</title>
			<desc>KNX IP router</desc>
			<rect x="0" y="245.083" width="69.4488" height="34.4542" class="st6"/>
			<text x="16.69" y="259.01" class="st4">KNX IP <tspan x="20.36" dy="1.2em" class="st5">router</tspan></text>		</g>
		<g id="shape10-16" transform="translate(184.543,-189.815)">
			<title>Nordic Sky.10</title>
			<desc>Thread Border Router</desc>
			<rect x="0" y="245.083" width="156.614" height="34.4542" class="st6"/>
			<text x="42.84" y="259.01" class="st4">Thread Border <tspan x="61.8" dy="1.2em" class="st5">Router</tspan></text>		</g>
		<g id="shape11-20" transform="translate(48.4803,-96.1516)">
			<title>Nordic Sky.11</title>
			<desc>KNX device 2</desc>
			<rect x="0" y="248.056" width="69.4488" height="31.4806" class="st7"/>
			<text x="23.42" y="260.5" class="st4">KNX  <tspan x="14.24" dy="1.2em" class="st5">device 2</tspan></text>		</g>
		<g id="shape12-24" transform="translate(48.4803,-140.238)">
			<title>Nordic Sky.12</title>
			<desc>KNX device 1</desc>
			<rect x="0" y="248.056" width="69.4488" height="31.4806" class="st7"/>
			<text x="23.42" y="260.5" class="st4">KNX <tspan x="14.24" dy="1.2em" class="st5">device 1</tspan></text>		</g>
		<g id="shape13-28" transform="translate(187.378,-123.422)">
			<title>Nordic Sky.13</title>
			<desc>KNX IoT Point API device 1</desc>
			<rect x="0" y="231.239" width="69.4488" height="48.2975" class="st7"/>
			<text x="13.94" y="245.49" class="st4">KNX IoT <tspan x="11.8" dy="1.2em" class="st5">Point API </tspan><tspan
						x="14.24" dy="1.2em" class="st5">device 1</tspan></text>		</g>
		<g id="shape14-33" transform="translate(271.709,-123.422)">
			<title>Nordic Sky.14</title>
			<desc>KNX IoT Point API device 2</desc>
			<rect x="0" y="231.239" width="69.4488" height="48.2975" class="st7"/>
			<text x="13.94" y="245.49" class="st4">KNX IoT <tspan x="11.8" dy="1.2em" class="st5">Point API </tspan><tspan
						x="14.24" dy="1.2em" class="st5">device 2</tspan></text>		</g>
		<g id="shape15-38" transform="translate(271.709,-59.5866)">
			<title>Nordic Sky.15</title>
			<desc>KNX IoT Point API device 3</desc>
			<rect x="0" y="231.239" width="69.4488" height="48.2975" class="st7"/>
			<text x="13.94" y="245.49" class="st4">KNX IoT <tspan x="11.8" dy="1.2em" class="st5">Point API </tspan><tspan
						x="14.24" dy="1.2em" class="st5">device 3</tspan></text>		</g>
		<g id="shape19-43" transform="translate(119.067,-244.083)">
			<title>Dynamic connector.19</title>
			<path d="M-7.08 279.54 L-7.09 299.35" class="st8"/>
		</g>
		<g id="shape20-46" transform="translate(126.437,-244.083)">
			<title>Dynamic connector.20</title>
			<path d="M-7.08 279.54 L-7.09 299.35" class="st9"/>
		</g>
		<g id="shape21-49" transform="translate(78.9527,-261.31)">
			<title>Dynamic connector.21</title>
			<path d="M0 279.54 L-43.23 279.54 L-43.23 316.58" class="st8"/>
		</g>
		<g id="shape22-52" transform="translate(35.0157,-189.815)">
			<title>Dynamic connector.22</title>
			<path d="M0.71 279.54 L0.71 313.37 L13.46 313.37" class="st10"/>
		</g>
		<g id="shape23-55" transform="translate(35.0157,-189.815)">
			<title>Dynamic connector.23</title>
			<path d="M0.71 279.54 L0.71 357.46 L13.46 357.46" class="st10"/>
		</g>
		<g id="shape24-58" transform="translate(148.402,-261.31)">
			<title>Dynamic connector.24</title>
			<path d="M0 279.54 L114.45 279.54 L114.45 316.58" class="st9"/>
		</g>
		<g id="shape25-61" transform="translate(214.945,-189.815)">
			<title>Dynamic connector.25</title>
			<path d="M7.02 279.54 L7.16 297.63" class="st11"/>
		</g>
		<g id="shape26-64" transform="translate(313.52,-189.815)">
			<title>Dynamic connector.26</title>
			<path d="M-7.09 279.54 L-7.09 297.63" class="st11"/>
		</g>
		<g id="shape27-67" transform="translate(299.346,-123.422)">
			<title>Dynamic connector.27</title>
			<path d="M7.09 279.54 L7.09 295.07" class="st12"/>
		</g>
		<g id="shape28-70" transform="translate(30.0298,-1.34074)">
			<title>Nordic Blue</title>
			<rect x="0" y="207.962" width="99.3138" height="71.5748" class="st13"/>
		</g>
		<g id="shape30-72" transform="translate(37.2176,-44.4334)">
			<title>Dynamic connector.30</title>
			<path d="M0 272.45 L17.01 272.45" class="st10"/>
		</g>
		<g id="shape31-75" transform="translate(37.1164,-31.2341)">
			<title>Dynamic connector.31</title>
			<path d="M0 272.45 L17.01 272.45" class="st8"/>
		</g>
		<g id="shape32-78" transform="translate(37.2581,-16.9313)">
			<title>Dynamic connector.32</title>
			<path d="M0 272.45 L17.01 272.45" class="st9"/>
		</g>
		<g id="shape33-81" transform="translate(54.2255,-43.8604)">
			<title>Sheet.33</title>
			<desc>KNX TP</desc>
			<rect x="0" y="265.499" width="75.1181" height="14.0376" class="st14"/>
			<text x="4" y="275.22" class="st15">KNX TP</text>		</g>
		<g id="shape36-84" transform="translate(54.2255,-31.1045)">
			<title>Sheet.36</title>
			<desc>IPv4</desc>
			<rect x="0" y="266.781" width="75.1181" height="12.7559" class="st14"/>
			<text x="4" y="275.86" class="st15">IPv4</text>		</g>
		<g id="shape37-87" transform="translate(54.2255,-16.9313)">
			<title>Sheet.37</title>
			<desc>IPv6 (wired)</desc>
			<rect x="0" y="265.364" width="75.1181" height="14.1732" class="st14"/>
			<text x="4" y="275.15" class="st15">IPv6 (wired)</text>		</g>
		<g id="shape1000-90" transform="translate(37.6479,-2.31339)">
			<title>Dynamic connector.1000</title>
			<path d="M0 272.45 L17.01 272.45" class="st11"/>
		</g>
		<g id="shape1001-93" transform="translate(30.0298,-58.7423)">
			<title>Sheet.1001</title>
			<desc>Networking types:</desc>
			<rect x="0" y="265.364" width="87.8993" height="14.1732" class="st14"/>
			<text x="4" y="275.15" class="st15">Networking types:</text>		</g>
		<g id="shape1002-96" transform="translate(54.2255,-1.34074)">
			<title>Sheet.1002</title>
			<desc>IPv6 (wireless)</desc>
			<rect x="0" y="265.109" width="75.1181" height="14.4284" class="st14"/>
			<text x="4" y="275.02" class="st15">IPv6 (wireless)</text>		</g>
	</g>
</svg>
